External Loads File
version=1
nRows=78
nColumns=13
Range=5.000000e-03-10 seconds
endheader
time 	forceRightX 	forceRightY 	forceRightZ 	pointRightX 	pointRightY 	pointRightZ 	forceLeftX 	forceLeftY 	forceLeftZ 	pointLeftX 	pointLeftY 	pointLeftZ 		
7.505000 53.869309 10.921180 -0.000000 0.061136 0.243692 -0.121998 -232.695125 408.964339 -0.000000 0.332039 0.373920 -0.366899
7.510000 49.705652 6.138385 -0.000000 0.060786 0.253049 -0.121579 -252.346151 470.962456 -0.000000 0.332618 0.363086 -0.366572
7.515000 45.578502 1.456202 -0.000000 0.060338 0.262735 -0.121979 -267.784566 532.192199 -0.000000 0.332924 0.352214 -0.366876
7.520000 41.211439 -2.974873 -0.000000 0.060746 0.272206 -0.122002 -279.361746 589.402295 -0.000000 0.332439 0.341220 -0.367197
7.525000 36.379429 -7.212013 -0.000000 0.061523 0.281963 -0.121995 -284.747328 641.327206 -0.000000 0.331689 0.330077 -0.367018
7.530000 30.918374 -11.093735 -0.000000 0.063357 0.291601 -0.122066 -284.653541 686.104591 -0.000000 0.330617 0.318748 -0.367122
7.535000 24.709143 -14.567156 -0.000000 0.065411 0.301181 -0.122061 -278.585416 723.266005 -0.000000 0.328937 0.307187 -0.367034
7.540000 17.680977 -17.603783 -0.000000 0.068081 0.310969 -0.122180 -266.062211 752.860250 -0.000000 0.327194 0.295415 -0.366973
7.545000 9.922283 -20.161614 -0.000000 0.070635 0.320411 -0.123090 -249.986379 774.163328 -0.000000 0.325008 0.283707 -0.367358
7.550000 1.539258 -22.356079 -0.000000 0.074246 0.329898 -0.123424 -230.136620 787.988510 -0.000000 0.322321 0.272310 -0.366838
7.555000 -7.248891 -24.332190 -0.000000 0.078456 0.339135 -0.123783 -208.395203 794.738357 -0.000000 0.319095 0.261422 -0.366663
7.560000 -16.232568 -26.317258 -0.000000 0.083151 0.348474 -0.124064 -184.819314 795.572335 -0.000000 0.315346 0.251243 -0.366515
7.565000 -25.137270 -28.612813 -0.000000 0.088710 0.357582 -0.123998 -160.396459 791.525317 -0.000000 0.311161 0.241770 -0.366430
7.570000 -33.712296 -31.543723 -0.000000 0.094376 0.366728 -0.124316 -135.077194 783.874762 -0.000000 0.306552 0.232770 -0.366254
7.575000 -41.786703 -35.383684 -0.000000 0.100520 0.375783 -0.124514 -108.408212 773.771780 -0.000000 0.301375 0.224030 -0.366196
7.580000 -49.256029 -40.366616 -0.000000 0.107057 0.384528 -0.124661 -81.186590 761.941043 -0.000000 0.295635 0.215478 -0.366195
7.585000 -56.183020 -46.536366 -0.000000 0.113874 0.393247 -0.125135 -53.350729 749.035767 -0.000000 0.289419 0.207073 -0.366167
7.590000 -62.695947 -53.809296 -0.000000 0.121026 0.401969 -0.125213 -25.561170 735.441210 -0.000000 0.282769 0.198932 -0.366021
7.595000 -68.868096 -62.027182 -0.000000 0.128486 0.410423 -0.125502 0.614239 721.414083 -0.000000 0.275809 0.191316 -0.365856
7.600000 -74.792863 -70.811420 -0.000000 0.136176 0.418518 -0.126036 24.938123 707.156093 -0.000000 0.268432 0.184387 -0.365780
7.605000 -80.613786 -79.576711 -0.000000 0.144440 0.426432 -0.126300 48.461179 692.579418 -0.000000 0.260699 0.178199 -0.365676
7.610000 -86.126494 -87.977593 -0.000000 0.152638 0.434071 -0.126965 69.875823 677.520376 -0.000000 0.252613 0.172715 -0.365608
7.615000 -91.573533 -95.131690 -0.000000 0.162154 0.441179 -0.126682 92.146793 661.315295 -0.000000 0.244246 0.167835 -0.365506
7.620000 -95.652452 -101.582690 -0.000000 0.169439 0.447775 -0.128369 107.773834 644.661178 -0.000000 0.235621 0.163383 -0.365464
7.625000 -99.494262 -105.523379 -0.000000 0.178750 0.453660 -0.128277 126.087232 625.836392 -0.000000 0.226701 0.159333 -0.365428
7.630000 -102.006833 -107.317142 -0.000000 0.187552 0.458835 -0.129369 141.685974 605.409415 -0.000000 0.217540 0.155609 -0.365388
7.635000 -103.263985 -106.383900 -0.000000 0.196732 0.463290 -0.129844 156.373209 582.808283 -0.000000 0.208152 0.152273 -0.365333
7.640000 -102.934980 -102.772172 -0.000000 0.205825 0.466865 -0.130122 169.123795 558.140028 -0.000000 0.198629 0.149506 -0.365197
7.645000 -101.219736 -96.303258 -0.000000 0.215356 0.469556 -0.130315 181.223399 530.905483 -0.000000 0.188841 0.147512 -0.365147
7.650000 -97.887894 -87.550224 -0.000000 0.224762 0.471537 -0.130294 190.823907 501.556976 -0.000000 0.179361 0.146385 -0.364820
7.655000 -93.342546 -76.681727 -0.000000 0.234035 0.472670 -0.130239 198.845163 469.546188 -0.000000 0.169711 0.146306 -0.364620
7.660000 -87.858706 -64.118458 -0.000000 0.243399 0.473219 -0.130294 205.048404 434.588476 -0.000000 0.160185 0.147272 -0.364368
7.665000 -81.724552 -50.322000 -0.000000 0.252579 0.473034 -0.130166 208.802216 396.618405 -0.000000 0.150842 0.149128 -0.364090
7.670000 -75.323369 -35.615055 -0.000000 0.261557 0.472256 -0.130043 209.766149 355.630183 -0.000000 0.141688 0.151720 -0.363825
7.675000 -69.022391 -20.237363 -0.000000 0.270273 0.470723 -0.129708 207.502631 311.984421 -0.000000 0.132878 0.154913 -0.363545
7.680000 -63.159479 -4.315642 -0.000000 0.278343 0.468553 -0.129483 201.547010 266.540274 -0.000000 0.124389 0.158537 -0.363293
7.685000 -58.038816 12.294785 -0.000000 0.286128 0.465829 -0.129245 192.176470 220.181012 -0.000000 0.116384 0.162568 -0.363000
7.690000 -53.863897 29.776452 -0.000000 0.293219 0.462346 -0.129033 179.641871 174.315200 -0.000000 0.108803 0.167028 -0.362983
7.695000 -50.710911 48.478886 -0.000000 0.299976 0.457891 -0.128523 164.801670 130.202706 -0.000000 0.101618 0.171932 -0.362719
7.700000 -48.695142 68.644181 -0.000000 0.306085 0.452862 -0.127860 148.181525 89.670076 -0.000000 0.094864 0.177289 -0.362258
7.705000 -47.930622 90.656695 -0.000000 0.311465 0.447604 -0.127367 130.634523 54.223888 -0.000000 0.088400 0.183110 -0.361754
7.710000 -48.636142 115.075627 -0.000000 0.316024 0.441954 -0.126959 113.009487 25.150230 -0.000000 0.082554 0.189354 -0.361297
7.715000 -50.818828 142.883196 -0.000000 0.320049 0.435537 -0.126603 96.139002 3.079170 -0.000000 0.077031 0.195985 -0.360734
7.720000 -55.507594 174.982414 -0.000000 0.323109 0.429075 -0.126310 80.707080 -11.177176 -0.000000 0.072744 0.202979 -0.361339
7.725000 -62.425027 212.813884 -0.000000 0.325527 0.422179 -0.126017 67.354844 -18.258607 -0.000000 0.067779 0.210324 -0.359979
7.730000 -72.532426 257.111415 -0.000000 0.327394 0.414796 -0.125406 56.680291 -18.653091 -0.000000 0.063370 0.218020 -0.359365
7.735000 -85.599920 308.263584 -0.000000 0.329331 0.406401 -0.125057 49.125472 -13.730551 -0.000000 0.059621 0.226074 -0.359224
7.740000 -101.877928 365.520843 -0.000000 0.330702 0.397228 -0.124690 44.976436 -5.049658 -0.000000 0.056538 0.234489 -0.359748
7.745000 -119.972543 427.519431 -0.000000 0.332214 0.387616 -0.124351 44.123029 5.515622 -0.000000 0.053416 0.243254 -0.360127
7.750000 -138.435483 491.934371 -0.000000 0.333706 0.377400 -0.124096 46.067410 16.358568 -0.000000 0.050754 0.252339 -0.360787
7.755000 -154.811910 555.978583 -0.000000 0.335290 0.366434 -0.123776 49.966856 26.232612 -0.000000 0.048762 0.261700 -0.360885
7.760000 -168.240980 616.094951 -0.000000 0.336488 0.355390 -0.123536 54.713178 34.595481 -0.000000 0.047440 0.271279 -0.360962
7.765000 -178.052033 668.962305 -0.000000 0.336836 0.344609 -0.123385 59.236462 41.424414 -0.000000 0.046755 0.281017 -0.361066
7.770000 -182.799216 712.316161 -0.000000 0.336883 0.333939 -0.123037 62.864216 46.936591 -0.000000 0.046721 0.290867 -0.361117
7.775000 -181.618293 744.831328 -0.000000 0.336641 0.323097 -0.122829 65.369030 51.466670 -0.000000 0.047335 0.300788 -0.361185
7.780000 -175.205371 765.831387 -0.000000 0.336143 0.312235 -0.122736 66.829893 55.371258 -0.000000 0.048482 0.310749 -0.361184
7.785000 -164.995014 775.346746 -0.000000 0.335358 0.301606 -0.122773 67.517878 58.859412 -0.000000 0.050259 0.320726 -0.361286
7.790000 -151.812358 774.220550 -0.000000 0.334057 0.291248 -0.122987 67.817477 61.865096 -0.000000 0.052589 0.330703 -0.361531
7.795000 -135.849440 763.860347 -0.000000 0.332123 0.281007 -0.122946 68.092252 64.094293 -0.000000 0.055505 0.340648 -0.361659
7.800000 -116.549320 746.030985 -0.000000 0.330010 0.270259 -0.122315 68.622723 65.077296 -0.000000 0.058921 0.350536 -0.362046
7.805000 -96.706943 722.066566 -0.000000 0.326983 0.260021 -0.123023 69.227329 64.622672 -0.000000 0.062847 0.360340 -0.362011
7.810000 -76.289321 693.773637 -0.000000 0.323506 0.249932 -0.122882 69.809297 62.338348 -0.000000 0.067245 0.370028 -0.362143
7.815000 -55.729088 662.705137 -0.000000 0.319512 0.239957 -0.122641 70.113144 57.970766 -0.000000 0.072103 0.379559 -0.362291
7.820000 -36.032948 630.162619 -0.000000 0.314937 0.230436 -0.122393 69.751941 51.485992 -0.000000 0.077377 0.388904 -0.362573
7.825000 -16.573900 597.333642 -0.000000 0.309814 0.221134 -0.122133 68.455626 42.896204 -0.000000 0.083407 0.398022 -0.362608
7.830000 1.638143 565.097014 -0.000000 0.304022 0.212298 -0.122286 65.872733 32.615314 -0.000000 0.089749 0.406874 -0.362737
7.835000 18.478444 534.239290 -0.000000 0.297826 0.203789 -0.122329 61.842362 21.098399 -0.000000 0.096517 0.415417 -0.363166
7.840000 33.923421 505.377619 -0.000000 0.291233 0.195581 -0.122271 56.331705 8.831370 -0.000000 0.103815 0.423617 -0.362975
7.845000 47.630399 478.965181 -0.000000 0.284291 0.187778 -0.122152 49.402827 -3.648964 -0.000000 0.111572 0.431433 -0.362511
7.850000 59.176380 455.315988 -0.000000 0.277013 0.180260 -0.122165 41.233043 -15.776397 -0.000000 0.119337 0.438831 -0.362313
7.855000 69.042447 434.461183 -0.000000 0.269294 0.173944 -0.122403 32.080608 -27.063951 -0.000000 0.127668 0.445776 -0.362242
7.860000 78.446238 416.060672 -0.000000 0.260685 0.167687 -0.119884 22.169916 -37.081578 -0.000000 0.136172 0.452239 -0.362178
7.865000 87.810665 399.685426 -0.000000 0.250611 0.162123 -0.119463 11.757097 -45.367911 -0.000000 0.144850 0.458192 -0.362159
7.870000 93.519666 385.779181 -0.000000 0.242303 0.157658 -0.119662 1.667160 -51.536275 -0.000000 0.153687 0.463607 -0.362143
7.875000 96.925830 373.723724 -0.000000 0.235630 0.152211 -0.121255 -7.752422 -55.651258 -0.000000 0.162740 0.468456 -0.362069
7.880000 102.043326 361.956842 -0.000000 0.226507 0.148681 -0.121323 -16.757184 -57.729895 -0.000000 0.171936 0.472717 -0.362358
7.885000 106.916636 350.385284 -0.000000 0.217053 0.145511 -0.121182 -24.832039 -58.002535 -0.000000 0.181254 0.476366 -0.362666
7.890000 111.268756 338.586473 -0.000000 0.207674 0.142356 -0.121482 -31.786212 -56.869144 -0.000000 0.190887 0.479384 -0.362698
